<svg xmlns="http://www.w3.org/2000/svg" xmlns:xlink="http://www.w3.org/1999/xlink" width="217" height="193.937" viewBox="0 0 217 193.937">
  <defs>
    <clipPath id="clip-path">
      <path id="Path_589" data-name="Path 589" d="M134.855,240.786a20.325,20.325,0,0,1-2.245-5.74c0-1,2.174-1.6,2.174-1.6,3.392-1.794,19.346.8,26.527,1.995a81.993,81.993,0,0,0,12.165,1.2s.995-.794,2.174-1.794,6.778-7.577,8.974-8.154a5.621,5.621,0,0,1,4.186.8s3.593,2.174,2.99,2.593-9.371,7.974-11.567,9.371-6.778.8-10.768,1.6c-3.435.685-17.351,1.533-20.542,1.794a11.594,11.594,0,0,1-7.181-.6" transform="translate(-132.61 -226.55)" fill="#e0bfea" stroke="#263238" stroke-linecap="round" stroke-linejoin="round" stroke-width="1"/>
    </clipPath>
    <clipPath id="clip-path-2">
      <path id="Path_593" data-name="Path 593" d="M265.771,283.457a4.245,4.245,0,0,1,3.762-2.267h36.257s2.62,0,1.837,4.979-11.535,35.381-14.133,44.573-3.147,28.565-3.147,28.565H246.86S250.306,312.978,265.771,283.457Z" transform="translate(-246.86 -281.19)" fill="#fff" stroke="#263238" stroke-linecap="round" stroke-linejoin="round" stroke-width="1"/>
    </clipPath>
    <clipPath id="clip-path-3">
      <path id="Path_612" data-name="Path 612" d="M132.608,242.18a.885.885,0,0,0,0,.114A.885.885,0,0,1,132.608,242.18Zm2.245,5.74a26.157,26.157,0,0,1-2.174-5.284,25.825,25.825,0,0,0,2.174,5.284Zm-2.234-5.593v.12A.293.293,0,0,0,132.619,242.327Zm.027.152a1.021,1.021,0,0,0,.033.158,1.026,1.026,0,0,1-.033-.158Zm2.207,5.436a49.792,49.792,0,0,0,7.523,10.611c7.181,7.779,27.924,28.125,29.9,29.522s1.4,5.381,0,9.371-6.583,9.784-6.382,16.155,2.174,16.155,1.995,18.15-5.169,8.779-5.169,8.779h51.455s-6.414-8.154-6.414-10.942,8.806-38.518,9.2-41.111-1.2-4.387-4.387-4.588-15.356-2.794-15.954-4.789,3.191-9.572,3.191-9.572l-11.959.6s-.6,5.186-1.4,6.186-1.995-1-4.789-2.392-8.154-2.593-10.17-4.191-21.14-19.569-21.14-19.569" transform="translate(-132.607 -242.18)" fill="#e0bfea" stroke="#263238" stroke-linecap="round" stroke-linejoin="round" stroke-width="1"/>
    </clipPath>
    <clipPath id="clip-path-4">
      <path id="Path_618" data-name="Path 618" d="M236.642,302.012c-.6-1.99,3.191-9.572,3.191-9.572l-11.959.6s-.6,5.186-1.4,6.186-1.995-1-4.789-2.392c-.212-.109-.446-.212-.685-.315l-.723,11.366s1.049,11.007,13.627,8.915c5.093-.848,10.529-5.392,15.22-10.5C244.3,305.41,237.1,303.54,236.642,302.012Z" transform="translate(-220.28 -292.44)" fill="#fff" stroke="#263238" stroke-linecap="round" stroke-linejoin="round" stroke-width="1"/>
    </clipPath>
    <clipPath id="clip-path-5">
      <path id="Path_622" data-name="Path 622" d="M196.566,285.454c-.8.995-1.995-1-4.789-2.392-1.761-.886-4.566-1.691-6.887-2.56-.658-1.56-1.527-3.593-2.087-4.822-.995-2.174-2.593-.8-2.593-.8a11.63,11.63,0,0,1-1.995-3.191c-.995-2.174-2.593-1.995-4.783-2.392s-6.784-4.588-6.784-4.588-2.147-1.631-3.033-2.441a16.976,16.976,0,0,1-8.855,7.844c8.529,8.909,25.831,25.836,27.646,27.108,1.995,1.392,1.4,5.381,0,9.371s-6.583,9.784-6.382,16.155S178.2,338.9,178.02,340.9c-.179,1.777-4.158,7.349-5.023,8.545l2.028.228h10.556c-.06-5.349-.054-27.179,3.6-35.876C193.376,303.8,196.566,285.454,196.566,285.454Z" transform="translate(-154.76 -262.27)" fill="#78e44e" stroke="#263238" stroke-linecap="round" stroke-linejoin="round" stroke-width="1"/>
    </clipPath>
    <clipPath id="clip-path-6">
      <path id="Path_626" data-name="Path 626" d="M223.934,303.459s-2.479-.761-4.006.576-3.805,8.2-5.148,15.639a20.8,20.8,0,0,0,1.631,12.8s3.136-8.224,4.088-12.231S223.934,303.459,223.934,303.459Z" transform="translate(-214.41 -303.243)" fill="#78e44e" stroke="#263238" stroke-linecap="round" stroke-linejoin="round" stroke-width="1"/>
    </clipPath>
    <clipPath id="clip-path-7">
      <path id="Path_631" data-name="Path 631" d="M239,371.48h23.254s-6.414-8.154-6.414-10.942,8.806-38.518,9.2-41.111-1.2-4.387-4.387-4.588S245.3,312.045,244.7,310.05c0,0-4.588,16.155-6.18,27.124C237.151,346.584,238.57,366.109,239,371.48Z" transform="translate(-237.938 -310.05)" fill="#78e44e" stroke="#263238" stroke-linecap="round" stroke-linejoin="round" stroke-width="1"/>
    </clipPath>
    <clipPath id="clip-path-8">
      <path id="Path_635" data-name="Path 635" d="M245.19,310.05s-6.153,19.569-6.18,27.124c0,0,8.741-10.583,9.882-18.02S245.19,310.05,245.19,310.05Z" transform="translate(-239.01 -310.05)" fill="#78e44e" stroke="#263238" stroke-linecap="round" stroke-linejoin="round" stroke-width="1"/>
    </clipPath>
    <clipPath id="clip-path-9">
      <path id="Path_640" data-name="Path 640" d="M368.179,411.741s4.506.185,7.458.609a53.94,53.94,0,0,0,5.936.473s-1.631-3.294-3.37-4.224-4.892-2.593-7.534-2.223-6.42,3.033-6.1,3.881S366.288,411.485,368.179,411.741Z" transform="translate(-364.546 -406.323)" fill="#fff" stroke="#263238" stroke-linecap="round" stroke-linejoin="round" stroke-width="1"/>
    </clipPath>
    <clipPath id="clip-path-10">
      <path id="Path_645" data-name="Path 645" d="M385,412.276s3.571-1.854,4.463-1.826,6.816,4.033,6.523,4.675a1.707,1.707,0,0,1-1.87.7c-.658-.31-4.648-2.006-4.648-2.006l-2.609.614Z" transform="translate(-385 -410.449)" fill="#fff" stroke="#263238" stroke-linecap="round" stroke-linejoin="round" stroke-width="1"/>
    </clipPath>
    <clipPath id="clip-path-11">
      <path id="Path_650" data-name="Path 650" d="M380.31,408.181s4.762-.152,5.708.326,5.218,7.806,4.577,8.339-2.414.375-2.359-.217-3.936-4.517-3.936-4.517l-3.1-.68Z" transform="translate(-380.31 -408.158)" fill="#fff" stroke="#263238" stroke-linecap="round" stroke-linejoin="round" stroke-width="1"/>
    </clipPath>
    <clipPath id="clip-path-12">
      <path id="Path_655" data-name="Path 655" d="M375.12,406.37s4.822-.158,5.778.332,5.284,7.9,4.631,8.442-2.435.375-2.381-.223-3.984-4.571-3.984-4.571l-3.142-.69Z" transform="translate(-375.12 -406.345)" fill="#fff" stroke="#263238" stroke-linecap="round" stroke-linejoin="round" stroke-width="1"/>
    </clipPath>
    <clipPath id="clip-path-13">
      <path id="Path_659" data-name="Path 659" d="M272.275,338.116c3.49,5.376,10.5,19,12.54,20.531,3.191,2.392,24.521,8.2,26.575,9.784s1.913,3.18,3.859,3.762a103.555,103.555,0,0,0,12.024,2.511c2.783.261,1.538-1.462,1.538-1.462l-4.745-3.262,4.137-1.022s4.148,4.99,4.925,5.262,2.147,0,2.06-.614c-.152-.984-4.577-9.034-6.148-9.377s-11.105.978-11.105.978-20-13.486-20.357-13.964a27.807,27.807,0,0,0-2.174-4.789c-.978-1.4-1.6-.995-1.6-.995s.4-1.8-.2-2.4l-3.191-3.191-.114.152c-.544-1.087-1.087-2.327-1.685-3.74-1.669-3.93-7.577-14.959-8.572-16.552-.745-1.19-6.985-2.044-10.149-2.4" transform="translate(-269.9 -317.33)" fill="#78e44e" stroke="#263238" stroke-linecap="round" stroke-linejoin="round" stroke-width="1"/>
    </clipPath>
    <clipPath id="clip-path-14">
      <path id="Path_669" data-name="Path 669" d="M323.87,397.009c2.06,1.593,1.913,3.18,3.859,3.762a103.553,103.553,0,0,0,12.024,2.511c2.783.261,1.538-1.462,1.538-1.462l-4.745-3.261,4.137-1.022s4.147,4.99,4.925,5.262,2.256.37,2.06-.614c-.381-1.9-4.577-9.034-6.148-9.377s-11.105.978-11.105.978-18.215-12.5-20.21-13.856c-7.735.745-11.415,4.794-12.964,7.224l.054.043C300.485,389.611,321.815,395.417,323.87,397.009Z" transform="translate(-297.24 -379.93)" fill="#fff" stroke="#263238" stroke-linecap="round" stroke-linejoin="round" stroke-width="1"/>
    </clipPath>
    <clipPath id="clip-path-15">
      <path id="Path_674" data-name="Path 674" d="M241.49,236.73l-16.373,6.833a24.141,24.141,0,0,1-2.1,8.322c-1.935,4.093-.8,11.839,1.055,16.019s10.051,2.544,13.046,2.022a32.286,32.286,0,0,0,5.941-1.734,5.523,5.523,0,0,0,5.305-.739S239.6,242.856,241.49,236.73Z" transform="translate(-222.007 -236.73)" fill="#e0bfea" stroke="#263238" stroke-linecap="round" stroke-linejoin="round" stroke-width="1"/>
    </clipPath>
    <clipPath id="clip-path-16">
      <path id="Path_692" data-name="Path 692" d="M154.332,406.409a9.617,9.617,0,0,1-3.425-.815,1.185,1.185,0,1,1,.935-2.174,5.915,5.915,0,0,0,2.87.587c.69-.772,1.75-5.436.381-7.686-.31-.5-.6-.592-.788-.614a3.717,3.717,0,0,0-2.337,1.087,1.188,1.188,0,1,1-1.631-1.729c.212-.207,2.174-1.973,4.267-1.691a3.414,3.414,0,0,1,2.49,1.718c2.017,3.289.636,9.545-.913,10.785A2.925,2.925,0,0,1,154.332,406.409Z" transform="translate(-149.964 -393.344)" fill="#fff" stroke="#263238" stroke-linecap="round" stroke-linejoin="round" stroke-width="1"/>
    </clipPath>
    <clipPath id="clip-path-17">
      <rect id="Rectangle_4944" data-name="Rectangle 4944" width="13.073" height="17.351" fill="#fff" stroke="#263238" stroke-linecap="round" stroke-linejoin="round" stroke-width="1"/>
    </clipPath>
    <linearGradient id="linear-gradient" x1="0.5" x2="0.5" y2="1" gradientUnits="objectBoundingBox">
      <stop offset="0" stop-color="#91c9ee"/>
      <stop offset="1" stop-color="#c192da"/>
    </linearGradient>
  </defs>
  <g id="Forgot_password-bro" data-name="Forgot password-bro" transform="translate(-54.927 -75)">
    <g id="freepik--background-simple--inject-2" transform="translate(54.927 88.466)">
      <path id="Path_549" data-name="Path 549" d="M264.63,188.913c1.087-14.443-2.272-29.522-6.773-42.943-6.659-19.982-19.661-40.458-41.513-45.188-12.6-2.718-25.423.2-36.229,7.023-10.388,6.566-18.482,15.052-31.261,16.693-12.921,1.663-26.179.995-39.165.995-33.392,0-60.489,35.077-53.716,71.616s38.714,61.875,65.811,61.875c24.352,0,44.388-14.606,67.518-18.531,11.469-1.946,22.988.359,34.338-2.555,13.193-3.392,25.6-11.475,32.908-23.178A55.987,55.987,0,0,0,264.63,188.913Z" transform="translate(-54.927 -99.773)" fill="#ede2f1"/>
      <path id="Path_550" data-name="Path 550" d="M264.63,188.913c1.087-14.443-2.272-29.522-6.773-42.943-6.659-19.982-19.661-40.458-41.513-45.188-12.6-2.718-25.423.2-36.229,7.023-10.388,6.566-18.482,15.052-31.261,16.693-12.921,1.663-26.179.995-39.165.995-33.392,0-60.489,35.077-53.716,71.616s38.714,61.875,65.811,61.875c24.352,0,44.388-14.606,67.518-18.531,11.469-1.946,22.988.359,34.338-2.555,13.193-3.392,25.6-11.475,32.908-23.178A55.987,55.987,0,0,0,264.63,188.913Z" transform="translate(-54.927 -99.773)" fill="#ede2f1" opacity="0.7"/>
    </g>
    <g id="freepik--Plants--inject-2" transform="translate(222.198 160.097)">
      <path id="Path_551" data-name="Path 551" d="M424.678,243.987s0-2.718-3.805-6.485-6.218-5.952-6.218-5.952-1.892,6.219,1.631,10.007a66.557,66.557,0,0,0,8.382,7.295Z" transform="translate(-386.154 -231.55)" fill="#e0bfea"/>
      <path id="Path_552" data-name="Path 552" d="M414.585,275.047s0-2.718-3.805-6.485-6.208-5.952-6.208-5.952-1.9,6.219,1.631,10.007a66.57,66.57,0,0,0,8.382,7.295Z" transform="translate(-381.552 -245.727)" fill="#e0bfea"/>
      <path id="Path_553" data-name="Path 553" d="M432.651,253.406s.288-2.685,4.452-6.05,6.811-5.256,6.811-5.256,1.223,6.382-2.669,9.784a66.6,66.6,0,0,1-9.1,6.371Z" transform="translate(-394.367 -236.365)" fill="#e0bfea"/>
      <path id="Path_554" data-name="Path 554" d="M420.022,291.132s.544-2.642,5.061-5.55,7.322-4.512,7.322-4.512.544,6.479-3.68,9.442A66.677,66.677,0,0,1,419,295.893Z" transform="translate(-388.369 -254.152)" fill="#e0bfea"/>
      <path id="Path_555" data-name="Path 555" d="M423.17,329.137s0-2.718,3.805-6.49,6.213-5.947,6.213-5.947,1.9,6.219-1.631,10a66.319,66.319,0,0,1-8.382,7.3Z" transform="translate(-390.273 -270.414)" fill="#e0bfea"/>
      <path id="Path_556" data-name="Path 556" d="M415.243,337.811s.381-2.674-2.827-6.958-5.311-6.773-5.311-6.773-2.756,5.887.185,10.132a66.492,66.492,0,0,0,7.257,8.415Z" transform="translate(-382.406 -273.783)" fill="#e0bfea"/>
      <path id="Path_557" data-name="Path 557" d="M416.19,367.827s0-2.718,3.805-6.485,6.219-5.952,6.219-5.952,1.892,6.219-1.631,10.007a66.867,66.867,0,0,1-8.382,7.3Z" transform="translate(-387.087 -288.073)" fill="#e0bfea"/>
      <path id="Path_558" data-name="Path 558" d="M420.775,392.272s-.685-2.615,2.017-7.235,4.512-7.327,4.512-7.327,3.4,5.534.962,10.089a66.52,66.52,0,0,1-6.257,9.181Z" transform="translate(-389.144 -298.261)" fill="#e0bfea"/>
      <path id="Path_559" data-name="Path 559" d="M425.79,253.16a77.006,77.006,0,0,1-1.033,8.393c-1.5,7.73-5.24,12.72-6.735,19.7s2.8,15.976,1.631,24.945-4.637,13.954-3.642,19.938,6.235,22.194,6.235,22.194" transform="translate(-386.924 -241.413)" fill="none" stroke="#263238" stroke-linecap="round" stroke-linejoin="round" stroke-width="1"/>
      <line id="Line_199" data-name="Line 199" y1="3.131" x2="4.077" transform="translate(38.252 15.709)" fill="none" stroke="#263238" stroke-linecap="round" stroke-linejoin="round" stroke-width="1"/>
      <line id="Line_200" data-name="Line 200" x1="1.712" y1="3.039" transform="translate(36.73 12.198)" fill="none" stroke="#263238" stroke-linecap="round" stroke-linejoin="round" stroke-width="1"/>
      <path id="Path_560" data-name="Path 560" d="M420.28,299.951s3.414-2.56,6.925-5.12" transform="translate(-388.953 -260.432)" fill="none" stroke="#263238" stroke-linecap="round" stroke-linejoin="round" stroke-width="1"/>
      <path id="Path_561" data-name="Path 561" d="M418.322,286.653a54.513,54.513,0,0,0-6.072-9.273" transform="translate(-385.288 -252.468)" fill="none" stroke="#263238" stroke-linecap="round" stroke-linejoin="round" stroke-width="1"/>
      <path id="Path_562" data-name="Path 562" d="M423.42,338.444a42.144,42.144,0,0,1,7.306-9.784" transform="translate(-390.387 -275.873)" fill="none" stroke="#263238" stroke-linecap="round" stroke-linejoin="round" stroke-width="1"/>
      <path id="Path_563" data-name="Path 563" d="M417.179,344.954a47.534,47.534,0,0,0-3.7-7.023c-1.989-2.941-2.278-3.321-2.278-3.321" transform="translate(-384.809 -278.589)" fill="none" stroke="#263238" stroke-linecap="round" stroke-linejoin="round" stroke-width="1"/>
      <path id="Path_564" data-name="Path 564" d="M416.19,377.821a45.539,45.539,0,0,1,3.077-6.2,39.814,39.814,0,0,1,3.984-5.218" transform="translate(-387.087 -293.099)" fill="none" stroke="#263238" stroke-linecap="round" stroke-linejoin="round" stroke-width="1"/>
      <path id="Path_565" data-name="Path 565" d="M423.065,401.608a11.55,11.55,0,0,1,1.022-5.979c1.424-2.75,3.033-6.354,3.7-7.779" transform="translate(-390.2 -302.889)" fill="none" stroke="#263238" stroke-linecap="round" stroke-linejoin="round" stroke-width="1"/>
      <path id="Path_566" data-name="Path 566" d="M376.687,313.417s-.294-1.7,1.669-4.485,3.261-4.4,3.261-4.4,1.859,3.7.065,6.447a42.457,42.457,0,0,1-4.463,5.49Z" transform="translate(-369.049 -264.86)" fill="#e0bfea"/>
      <path id="Path_567" data-name="Path 567" d="M386.4,331.8s-.294-1.7,1.669-4.484,3.262-4.4,3.262-4.4,1.859,3.7.065,6.452a42.646,42.646,0,0,1-4.463,5.485Z" transform="translate(-373.481 -273.249)" fill="#e0bfea"/>
      <path id="Path_568" data-name="Path 568" d="M370.934,321.211s-.467-1.631-3.446-3.31-4.838-2.56-4.838-2.56-.076,4.137,2.718,5.843a42.575,42.575,0,0,0,6.4,3.006Z" transform="translate(-362.65 -269.794)" fill="#e0bfea"/>
      <path id="Path_569" data-name="Path 569" d="M382.09,343.648s-.641-1.6-3.772-2.935-5.088-2.033-5.088-2.033.359,4.12,3.338,5.523a42.442,42.442,0,0,0,6.681,2.316Z" transform="translate(-367.479 -280.447)" fill="#e0bfea"/>
      <path id="Path_570" data-name="Path 570" d="M386,367.513s-.288-1.7-3.077-3.658-4.544-3.055-4.544-3.055-.511,4.1,2.1,6.093a42.05,42.05,0,0,0,6.05,3.669Z" transform="translate(-369.809 -290.543)" fill="#e0bfea"/>
      <path id="Path_571" data-name="Path 571" d="M393.493,371.286s-.544-1.631,1.017-4.675,2.593-4.822,2.593-4.822,2.365,3.392.984,6.376a42.115,42.115,0,0,1-3.636,6.061Z" transform="translate(-376.685 -290.995)" fill="#e0bfea"/>
      <path id="Path_572" data-name="Path 572" d="M402,398.435s.2-1.707,2.865-3.8,4.349-3.31,4.349-3.31.745,4.071-1.75,6.208a42.4,42.4,0,0,1-5.827,4.006Z" transform="translate(-380.446 -304.473)" fill="#e0bfea"/>
      <path id="Path_573" data-name="Path 573" d="M394.576,391.013s-.294-1.7-3.077-3.658-4.533-3.055-4.533-3.055-.511,4.1,2.1,6.1a42.618,42.618,0,0,0,6.05,3.669Z" transform="translate(-373.73 -301.269)" fill="#e0bfea"/>
      <path id="Path_574" data-name="Path 574" d="M395.766,406.535s.141-1.718-2.055-4.321-3.62-4.1-3.62-4.1-1.538,3.838.489,6.431a42.166,42.166,0,0,0,4.892,5.077Z" transform="translate(-374.919 -307.572)" fill="#e0bfea"/>
      <path id="Path_575" data-name="Path 575" d="M376.17,320.14a49.088,49.088,0,0,0,1.56,5.153c1.777,4.686,4.664,7.409,6.36,11.622s0,10.328,1.674,15.824,4.446,8.246,4.446,12.105-1.5,14.6-1.5,14.6" transform="translate(-368.821 -271.985)" fill="none" stroke="#263238" stroke-linecap="round" stroke-linejoin="round" stroke-width="1"/>
      <line id="Line_201" data-name="Line 201" x1="2.897" y1="1.517" transform="translate(5.61 51.02)" fill="none" stroke="#263238" stroke-linecap="round" stroke-linejoin="round" stroke-width="1"/>
      <line id="Line_202" data-name="Line 202" y1="2.087" x2="0.739" transform="translate(7.996 48.21)" fill="none" stroke="#263238" stroke-linecap="round" stroke-linejoin="round" stroke-width="1"/>
      <path id="Path_576" data-name="Path 576" d="M386.3,348.612s-2.419-1.234-4.892-2.462" transform="translate(-371.212 -283.856)" fill="none" stroke="#263238" stroke-linecap="round" stroke-linejoin="round" stroke-width="1"/>
      <path id="Path_577" data-name="Path 577" d="M387.38,339.452a34.828,34.828,0,0,1,2.8-6.452" transform="translate(-373.937 -277.854)" fill="none" stroke="#263238" stroke-linecap="round" stroke-linejoin="round" stroke-width="1"/>
      <path id="Path_578" data-name="Path 578" d="M388.312,373.133a26.891,26.891,0,0,0-5.642-5.333" transform="translate(-371.787 -293.738)" fill="none" stroke="#263238" stroke-linecap="round" stroke-linejoin="round" stroke-width="1"/>
      <path id="Path_579" data-name="Path 579" d="M394.57,375.862a30.584,30.584,0,0,1,1.56-4.8c.93-2.06,1.087-2.332,1.087-2.332" transform="translate(-377.219 -294.162)" fill="none" stroke="#263238" stroke-linecap="round" stroke-linejoin="round" stroke-width="1"/>
      <path id="Path_580" data-name="Path 580" d="M401.76,403.575a25.442,25.442,0,0,1,3.12-3.234,16.4,16.4,0,0,0,2.022-1.761" transform="translate(-380.5 -307.786)" fill="none" stroke="#263238" stroke-linecap="round" stroke-linejoin="round" stroke-width="1"/>
      <path id="Path_581" data-name="Path 581" d="M397.239,397a29.172,29.172,0,0,0-2.6-3.566,25.375,25.375,0,0,0-3.066-2.838" transform="translate(-375.85 -304.144)" fill="none" stroke="#263238" stroke-linecap="round" stroke-linejoin="round" stroke-width="1"/>
      <path id="Path_582" data-name="Path 582" d="M396.722,412.461a7.354,7.354,0,0,0-1.288-3.642c-1.19-1.571-2.593-3.658-3.164-4.479" transform="translate(-376.169 -310.415)" fill="none" stroke="#263238" stroke-linecap="round" stroke-linejoin="round" stroke-width="1"/>
    </g>
    <g id="freepik--Bookshelf--inject-2" transform="translate(69.388 163.886)">
      <path id="Path_583" data-name="Path 583" d="M90.671,259.611l-2.381-6.8,2.381,2.886-1.87-10.2,2.892,7.317,1.022-14.291,1.7,13.606,1.87-2.718v3.4l2.212-4.593-1.19,7.991,2.038-1.359-3.229,4.419Z" transform="translate(-84.615 -238.52)" fill="#9a5dba"/>
      <path id="Path_584" data-name="Path 584" d="M99.014,274.19H90.17l1.593,17.857h5.659Z" transform="translate(-85.473 -254.801)" fill="#263238" stroke="#263238" stroke-linecap="round" stroke-linejoin="round" stroke-width="1"/>
      <rect id="Rectangle_4927" data-name="Rectangle 4927" width="30.13" height="63.816" transform="translate(0 37.045)" fill="#fff" stroke="#263238" stroke-linecap="round" stroke-linejoin="round" stroke-width="1"/>
      <rect id="Rectangle_4928" data-name="Rectangle 4928" width="16.715" height="63.816" transform="translate(15.063 37.045)" fill="#fff" stroke="#263238" stroke-linecap="round" stroke-linejoin="round" stroke-width="1"/>
      <rect id="Rectangle_4929" data-name="Rectangle 4929" width="14.834" height="63.816" transform="translate(15.063 37.045)" fill="#263238" stroke="#263238" stroke-linecap="round" stroke-linejoin="round" stroke-width="1"/>
      <path id="Path_2837" data-name="Path 2837" d="M0,0H13.165V13.068H0Z" transform="translate(15.063 86.021)" fill="#9a5dba" stroke="#263238" stroke-linecap="round" stroke-width="1"/>
      <rect id="Rectangle_4931" data-name="Rectangle 4931" width="13.165" height="1.674" transform="translate(15.063 86.728)" fill="#fff" stroke="#263238" stroke-linecap="round" stroke-linejoin="round" stroke-width="1"/>
      <rect id="Rectangle_4932" data-name="Rectangle 4932" width="13.165" height="1.674" transform="translate(15.063 96.349)" fill="#fff" stroke="#263238" stroke-linecap="round" stroke-linejoin="round" stroke-width="1"/>
      <line id="Line_203" data-name="Line 203" y2="16.525" transform="translate(17.558 86.293)" fill="none" stroke="#263238" stroke-linecap="round" stroke-linejoin="round" stroke-width="1"/>
      <line id="Line_204" data-name="Line 204" y2="16.525" transform="translate(22.151 86.293)" fill="none" stroke="#263238" stroke-linecap="round" stroke-linejoin="round" stroke-width="1"/>
      <line id="Line_205" data-name="Line 205" y2="16.525" transform="translate(26.184 86.293)" fill="none" stroke="#263238" stroke-linecap="round" stroke-linejoin="round" stroke-width="1"/>
      <path id="Path_2835" data-name="Path 2835" d="M0,0H13.165V19.215H0Z" transform="translate(15.063 39.415)" fill="#9a5dba" stroke="#263238" stroke-linecap="round" stroke-width="1"/>
      <rect id="Rectangle_4934" data-name="Rectangle 4934" width="13.165" height="1.903" transform="translate(15.063 40.219)" fill="#fff" stroke="#263238" stroke-linecap="round" stroke-linejoin="round" stroke-width="1"/>
      <rect id="Rectangle_4935" data-name="Rectangle 4935" width="13.165" height="1.903" transform="translate(15.063 52.537)" fill="#fff" stroke="#263238" stroke-linecap="round" stroke-linejoin="round" stroke-width="1"/>
      <line id="Line_206" data-name="Line 206" y2="18.781" transform="translate(17.558 39.719)" fill="none" stroke="#263238" stroke-linecap="round" stroke-linejoin="round" stroke-width="1"/>
      <line id="Line_207" data-name="Line 207" y2="18.781" transform="translate(22.151 39.719)" fill="none" stroke="#263238" stroke-linecap="round" stroke-linejoin="round" stroke-width="1"/>
      <line id="Line_208" data-name="Line 208" y2="18.781" transform="translate(26.184 39.719)" fill="none" stroke="#263238" stroke-linecap="round" stroke-linejoin="round" stroke-width="1"/>
      <path id="Path_2836" data-name="Path 2836" d="M0,0H13.165V19.215H0Z" transform="translate(15.063 62.571)" fill="#9a5dba" stroke="#263238" stroke-linecap="round" stroke-width="1"/>
      <rect id="Rectangle_4937" data-name="Rectangle 4937" width="13.165" height="1.903" transform="translate(15.063 63.376)" fill="#fff" stroke="#263238" stroke-linecap="round" stroke-linejoin="round" stroke-width="1"/>
      <rect id="Rectangle_4938" data-name="Rectangle 4938" width="13.165" height="1.903" transform="translate(15.063 75.693)" fill="#fff" stroke="#263238" stroke-linecap="round" stroke-linejoin="round" stroke-width="1"/>
      <line id="Line_209" data-name="Line 209" y2="18.775" transform="translate(17.558 62.881)" fill="none" stroke="#263238" stroke-linecap="round" stroke-linejoin="round" stroke-width="1"/>
      <line id="Line_210" data-name="Line 210" y2="18.775" transform="translate(22.151 62.881)" fill="none" stroke="#263238" stroke-linecap="round" stroke-linejoin="round" stroke-width="1"/>
      <line id="Line_211" data-name="Line 211" y2="18.775" transform="translate(26.184 62.881)" fill="none" stroke="#263238" stroke-linecap="round" stroke-linejoin="round" stroke-width="1"/>
      <rect id="Rectangle_4939" data-name="Rectangle 4939" width="15.063" height="2.185" transform="translate(15.063 58.364)" fill="#fff" stroke="#263238" stroke-linecap="round" stroke-linejoin="round" stroke-width="1"/>
      <rect id="Rectangle_4940" data-name="Rectangle 4940" width="15.063" height="2.185" transform="translate(15.063 81.667)" fill="#fff" stroke="#263238" stroke-linecap="round" stroke-linejoin="round" stroke-width="1"/>
      <line id="Line_212" data-name="Line 212" y2="63.81" transform="translate(30.125 37.045)" fill="none" stroke="#263238" stroke-linecap="round" stroke-linejoin="round" stroke-width="1"/>
      <path id="Path_585" data-name="Path 585" d="M105.33,306.647v63.81h2.125v-61.44h14.8v-2.4Z" transform="translate(-92.393 -269.602)" fill="#fff" stroke="#263238" stroke-linecap="round" stroke-linejoin="round" stroke-width="1"/>
      <line id="Line_213" data-name="Line 213" y1="2.37" transform="translate(15.063 37.045)" fill="none" stroke="#263238" stroke-linecap="round" stroke-linejoin="round" stroke-width="1"/>
    </g>
    <g id="freepik--Character--inject-2" transform="translate(97.152 153.02)">
      <path id="Path_586" data-name="Path 586" d="M134.855,240.786a20.325,20.325,0,0,1-2.245-5.74c0-1,2.174-1.6,2.174-1.6,3.392-1.794,19.346.8,26.527,1.995a81.993,81.993,0,0,0,12.165,1.2s.995-.794,2.174-1.794,6.778-7.577,8.974-8.154a5.621,5.621,0,0,1,4.186.8s3.593,2.174,2.99,2.593-9.371,7.974-11.567,9.371-6.778.8-10.768,1.6c-3.435.685-17.351,1.533-20.542,1.794a11.594,11.594,0,0,1-7.181-.6" transform="translate(-132.608 -222.191)" fill="#fff"/>
      <g id="Group_922" data-name="Group 922" transform="translate(0.002 4.359)" clip-path="url(#clip-path)">
        <path id="Path_587" data-name="Path 587" d="M188.88,227.444a5.523,5.523,0,0,0-4.186-.8c-2.191.6-7.779,7.181-8.974,8.154s-2.174,1.794-2.174,1.794a81.989,81.989,0,0,1-12.165-1.2c-7.181-1.2-23.135-3.805-26.527-1.995,0,0-2.174.6-2.174,1.6a6.86,6.86,0,0,0,.429,1.631l.3.109a110.964,110.964,0,0,1,12.584-.212c8.6.207,28.489,1.386,29.766,1.848.544.207,4.4-.663,8.67-2.174,3.261-2.658,7.094-5.979,7.48-6.213C192.473,229.635,188.88,227.444,188.88,227.444Z" transform="translate(-132.642 -226.526)" fill="#e0bfea"/>
        <path id="Path_588" data-name="Path 588" d="M188.88,227.444a5.523,5.523,0,0,0-4.186-.8c-2.191.6-7.779,7.181-8.974,8.154s-2.174,1.794-2.174,1.794a81.989,81.989,0,0,1-12.165-1.2c-7.181-1.2-23.135-3.805-26.527-1.995,0,0-2.174.6-2.174,1.6a6.86,6.86,0,0,0,.429,1.631l.3.109a110.964,110.964,0,0,1,12.584-.212c8.6.207,28.489,1.386,29.766,1.848.544.207,4.4-.663,8.67-2.174,3.261-2.658,7.094-5.979,7.48-6.213C192.473,229.635,188.88,227.444,188.88,227.444Z" transform="translate(-132.642 -226.526)" fill="#e0bfea" opacity="0.5"/>
      </g>
      <path id="Path_590" data-name="Path 590" d="M134.855,240.786a20.325,20.325,0,0,1-2.245-5.74c0-1,2.174-1.6,2.174-1.6,3.392-1.794,19.346.8,26.527,1.995a81.993,81.993,0,0,0,12.165,1.2s.995-.794,2.174-1.794,6.778-7.577,8.974-8.154a5.621,5.621,0,0,1,4.186.8s3.593,2.174,2.99,2.593-9.371,7.974-11.567,9.371-6.778.8-10.768,1.6c-3.435.685-17.351,1.533-20.542,1.794a11.594,11.594,0,0,1-7.181-.6" transform="translate(-132.608 -222.191)" fill="none" stroke="#263238" stroke-linecap="round" stroke-linejoin="round" stroke-width="1"/>
      <path id="Path_591" data-name="Path 591" d="M265.771,283.457a4.245,4.245,0,0,1,3.762-2.267h36.257s2.62,0,1.837,4.979-11.535,35.381-14.133,44.573-3.147,28.565-3.147,28.565H246.86S250.306,312.978,265.771,283.457Z" transform="translate(-184.754 -247.13)" fill="#fff"/>
      <g id="Group_923" data-name="Group 923" transform="translate(62.106 34.06)" clip-path="url(#clip-path-2)">
        <path id="Path_592" data-name="Path 592" d="M282.068,281.19H269.5a4.245,4.245,0,0,0-3.762,2.267c-15.465,29.522-18.949,75.834-18.949,75.834h19.5l4.811-18.27,20.058,4.137c.141-1.533.3-3.093.495-4.631l-.44-4.892s-4.109-4.321-5.4-5.4-.435-3.033-.652-11.464-7.784-14.492-10.6-19.683,1.517-8.436,5.409-13.628A10.014,10.014,0,0,0,282.068,281.19Z" transform="translate(-246.828 -281.19)" opacity="0.16"/>
      </g>
      <path id="Path_594" data-name="Path 594" d="M265.771,283.457a4.245,4.245,0,0,1,3.762-2.267h36.257s2.62,0,1.837,4.979-11.535,35.381-14.133,44.573-3.147,28.565-3.147,28.565H246.86S250.306,312.978,265.771,283.457Z" transform="translate(-184.754 -247.13)" fill="none" stroke="#263238" stroke-linecap="round" stroke-linejoin="round" stroke-width="1"/>
      <path id="Path_595" data-name="Path 595" d="M333.056,289.825c-3.664,8.55-11.415,42.4-12.676,69.453h3.5s.544-19.395,3.147-28.565,13.367-39.578,14.133-44.573-1.837-4.979-1.837-4.979S336,282.97,333.056,289.825Z" transform="translate(-218.311 -247.116)" fill="#263238" stroke="#263238" stroke-linecap="round" stroke-linejoin="round" stroke-width="1"/>
      <path id="Path_596" data-name="Path 596" d="M219.69,244.149s-5.784-3.392-7.974-9.371,17.15-15.557,25.548-16.155,10.768,1.593,15.764,10.17,8.377,20.341,5.784,26.124-6.98,7.181-3.805,11.959,12.165,18.346,11.567,24.727-6.778,11.959-15.764,12.567-20.944-4.789-30.913-13.589-7.382-21.743-3.805-25.929,8.974-5.784,9.371-9.969S219.69,244.149,219.69,244.149Z" transform="translate(-168.635 -218.531)" fill="#26242e" stroke="#263238" stroke-linecap="round" stroke-linejoin="round" stroke-width="1"/>
      <path id="Path_597" data-name="Path 597" d="M271.88,248.25c3.071,5.718,6.914,13.377,8.116,18,2.1,8.1-8.7,13.2-5.7,17.1" transform="translate(-196.174 -232.095)" fill="none" stroke="#fff" stroke-linecap="round" stroke-linejoin="round" stroke-width="1"/>
      <path id="Path_598" data-name="Path 598" d="M264.18,234.47s1.2,2.038,2.848,5.039" transform="translate(-192.66 -225.806)" fill="none" stroke="#fff" stroke-linecap="round" stroke-linejoin="round" stroke-width="1"/>
      <path id="Path_599" data-name="Path 599" d="M293.82,260.94a14.722,14.722,0,0,1,.685,3.3" transform="translate(-206.188 -237.887)" fill="none" stroke="#fff" stroke-linecap="round" stroke-linejoin="round" stroke-width="1"/>
      <path id="Path_600" data-name="Path 600" d="M268,229s9.447,6.98,13.22,15.334" transform="translate(-194.403 -223.309)" fill="none" stroke="#fff" stroke-linecap="round" stroke-linejoin="round" stroke-width="1"/>
      <path id="Path_601" data-name="Path 601" d="M230.693,238.63c-6.746,1.892-16.449,4.963-15.66,6.735" transform="translate(-170.207 -227.704)" fill="none" stroke="#fff" stroke-linecap="round" stroke-linejoin="round" stroke-width="1"/>
      <path id="Path_602" data-name="Path 602" d="M252.338,235.57s-1.44.359-3.588.935" transform="translate(-185.617 -226.308)" fill="none" stroke="#fff" stroke-linecap="round" stroke-linejoin="round" stroke-width="1"/>
      <path id="Path_603" data-name="Path 603" d="M240,227.739a34.789,34.789,0,0,1,11.959-1.576" transform="translate(-181.623 -221.999)" fill="none" stroke="#fff" stroke-linecap="round" stroke-linejoin="round" stroke-width="1"/>
      <path id="Path_604" data-name="Path 604" d="M234.94,230.466a15.062,15.062,0,0,1,1.892-.826" transform="translate(-179.314 -223.601)" fill="none" stroke="#fff" stroke-linecap="round" stroke-linejoin="round" stroke-width="1"/>
      <path id="Path_605" data-name="Path 605" d="M132.608,242.18a.885.885,0,0,0,0,.114A.885.885,0,0,1,132.608,242.18Zm2.245,5.74a26.157,26.157,0,0,1-2.174-5.284,25.825,25.825,0,0,0,2.174,5.284Zm-2.234-5.593v.12A.293.293,0,0,0,132.619,242.327Zm.027.152a1.021,1.021,0,0,0,.033.158,1.026,1.026,0,0,1-.033-.158Zm2.207,5.436a49.792,49.792,0,0,0,7.523,10.611c7.181,7.779,27.924,28.125,29.9,29.522s1.4,5.381,0,9.371-6.583,9.784-6.382,16.155,2.174,16.155,1.995,18.15-5.169,8.779-5.169,8.779h51.455s-6.414-8.154-6.414-10.942,8.806-38.518,9.2-41.111-1.2-4.387-4.387-4.588-15.356-2.794-15.954-4.789,3.191-9.572,3.191-9.572l-11.959.6s-.6,5.186-1.4,6.186-1.995-1-4.789-2.392-8.154-2.593-10.17-4.191-21.14-19.569-21.14-19.569" transform="translate(-132.607 -229.325)" fill="#fff"/>
      <g id="Group_925" data-name="Group 925" transform="translate(0 12.855)" clip-path="url(#clip-path-3)">
        <path id="Path_606" data-name="Path 606" d="M209.77,295.64c.995,1.739,1.99,3.31,1.99,3.31s3.354,1.886,4.191,1.886,5.871,2.718,5.871,2.718,4.2-1.049,2.718-4.615a11.261,11.261,0,0,0-1.75-2.511c-.25,1.582-.652,3.653-1.125,4.245-.8.995-1.995-1-4.789-2.392C215.064,297.379,212.135,296.553,209.77,295.64Z" transform="translate(-167.826 -266.58)" fill="#e0bfea"/>
        <path id="Path_607" data-name="Path 607" d="M174.951,269.315C168.792,263.613,161,256.3,161,256.3l-4.533-.652-.544.3s12.8,11.323,15.519,12.584A8.505,8.505,0,0,0,174.951,269.315Z" transform="translate(-143.247 -248.328)" fill="#e0bfea"/>
        <path id="Path_608" data-name="Path 608" d="M202.389,291.285l-.489-.435c.25.413.391.674.391.674Z" transform="translate(-164.234 -264.394)" fill="#e0bfea"/>
        <g id="Group_924" data-name="Group 924" transform="translate(12.673 7.322)" opacity="0.5">
          <path id="Path_609" data-name="Path 609" d="M209.77,295.64c.995,1.739,1.99,3.31,1.99,3.31s3.354,1.886,4.191,1.886,5.871,2.718,5.871,2.718,4.2-1.049,2.718-4.615a11.261,11.261,0,0,0-1.75-2.511c-.25,1.582-.652,3.653-1.125,4.245-.8.995-1.995-1-4.789-2.392C215.064,297.379,212.135,296.553,209.77,295.64Z" transform="translate(-180.498 -273.902)" fill="#e0bfea"/>
          <path id="Path_610" data-name="Path 610" d="M174.951,269.315C168.792,263.613,161,256.3,161,256.3l-4.533-.652-.544.3s12.8,11.323,15.519,12.584A8.505,8.505,0,0,0,174.951,269.315Z" transform="translate(-155.92 -255.65)" fill="#e0bfea"/>
          <path id="Path_611" data-name="Path 611" d="M202.389,291.285l-.489-.435c.25.413.391.674.391.674Z" transform="translate(-176.906 -271.716)" fill="#e0bfea"/>
        </g>
      </g>
      <path id="Path_613" data-name="Path 613" d="M132.608,242.18a.885.885,0,0,0,0,.114A.885.885,0,0,1,132.608,242.18Zm2.245,5.74a26.157,26.157,0,0,1-2.174-5.284,25.825,25.825,0,0,0,2.174,5.284Zm-2.234-5.593v.12A.293.293,0,0,0,132.619,242.327Zm.027.152a1.021,1.021,0,0,0,.033.158,1.026,1.026,0,0,1-.033-.158Zm2.207,5.436a49.792,49.792,0,0,0,7.523,10.611c7.181,7.779,27.924,28.125,29.9,29.522s1.4,5.381,0,9.371-6.583,9.784-6.382,16.155,2.174,16.155,1.995,18.15-5.169,8.779-5.169,8.779h51.455s-6.414-8.154-6.414-10.942,8.806-38.518,9.2-41.111-1.2-4.387-4.387-4.588-15.356-2.794-15.954-4.789,3.191-9.572,3.191-9.572l-11.959.6s-.6,5.186-1.4,6.186-1.995-1-4.789-2.392-8.154-2.593-10.17-4.191-21.14-19.569-21.14-19.569" transform="translate(-132.607 -229.325)" fill="none" stroke="#263238" stroke-linecap="round" stroke-linejoin="round" stroke-width="1"/>
      <path id="Path_614" data-name="Path 614" d="M156.926,254.49s-6.371.12-9.926-2.81" transform="translate(-139.176 -233.661)" fill="none" stroke="#263238" stroke-linecap="round" stroke-linejoin="round" stroke-width="1"/>
      <path id="Path_615" data-name="Path 615" d="M236.642,302.012c-.6-1.99,3.191-9.572,3.191-9.572l-11.959.6s-.6,5.186-1.4,6.186-1.995-1-4.789-2.392c-.212-.109-.446-.212-.685-.315l-.723,11.366s1.049,11.007,13.627,8.915c5.093-.848,10.529-5.392,15.22-10.5C244.3,305.41,237.1,303.54,236.642,302.012Z" transform="translate(-172.623 -252.265)" fill="#fff"/>
      <g id="Group_926" data-name="Group 926" transform="translate(47.657 40.175)" clip-path="url(#clip-path-4)">
        <path id="Path_616" data-name="Path 616" d="M247.816,294.6s-.723,4.055-1.3,8.54-1.011,7.822-1.011,7.822l2.653-8.295,2.99-8.79S248.251,293.88,247.816,294.6Z" transform="translate(-231.791 -293.097)" fill="#78e44e"/>
        <path id="Path_617" data-name="Path 617" d="M247.816,294.6s-.723,4.055-1.3,8.54-1.011,7.822-1.011,7.822l2.653-8.295,2.99-8.79S248.251,293.88,247.816,294.6Z" transform="translate(-231.791 -293.097)" fill="#e0bfea" opacity="0.5"/>
      </g>
      <path id="Path_619" data-name="Path 619" d="M236.642,302.012c-.6-1.99,3.191-9.572,3.191-9.572l-11.959.6s-.6,5.186-1.4,6.186-1.995-1-4.789-2.392c-.212-.109-.446-.212-.685-.315l-.723,11.366s1.049,11.007,13.627,8.915c5.093-.848,10.529-5.392,15.22-10.5C244.3,305.41,237.1,303.54,236.642,302.012Z" transform="translate(-172.623 -252.265)" fill="none" stroke="#263238" stroke-linecap="round" stroke-linejoin="round" stroke-width="1"/>
      <path id="Path_620" data-name="Path 620" d="M196.566,285.454c-.8.995-1.995-1-4.789-2.392-1.761-.886-4.566-1.691-6.887-2.56-.658-1.56-1.527-3.593-2.087-4.822-.995-2.174-2.593-.8-2.593-.8a11.63,11.63,0,0,1-1.995-3.191c-.995-2.174-2.593-1.995-4.783-2.392s-6.784-4.588-6.784-4.588-2.147-1.631-3.033-2.441a16.976,16.976,0,0,1-8.855,7.844c8.529,8.909,25.831,25.836,27.646,27.108,1.995,1.392,1.4,5.381,0,9.371s-6.583,9.784-6.382,16.155S178.2,338.9,178.02,340.9c-.179,1.777-4.158,7.349-5.023,8.545l2.028.228h10.556c-.06-5.349-.054-27.179,3.6-35.876C193.376,303.8,196.566,285.454,196.566,285.454Z" transform="translate(-142.718 -238.494)" fill="#26242e"/>
      <g id="Group_927" data-name="Group 927" transform="translate(12.042 23.776)" clip-path="url(#clip-path-5)">
        <path id="Path_621" data-name="Path 621" d="M197.894,283.062c-1.761-.886-4.566-1.69-6.887-2.56-.658-1.56-1.527-3.593-2.087-4.822-.995-2.174-2.593-.8-2.593-.8a11.633,11.633,0,0,1-1.995-3.191c-.995-2.174-2.593-1.995-4.783-2.392s-6.784-4.588-6.784-4.588-2.147-1.631-3.033-2.441a14.748,14.748,0,0,1-1.571,2.441c3.566,3.017,7.5,6.213,8.877,6.849,2.718,1.256,3.354.207,5.436,1.468s4.4,5.436,4.4,5.436,1.261-3.359,2.31-1.049a71.587,71.587,0,0,0,3.566,6.289s3.354,1.886,4.191,1.886c.658,0,3.881,1.674,5.251,2.4.3-1.593.473-2.549.473-2.549C201.883,286.448,200.688,284.453,197.894,283.062Z" transform="translate(-160.876 -262.27)" opacity="0.16"/>
      </g>
      <path id="Path_623" data-name="Path 623" d="M196.566,285.454c-.8.995-1.995-1-4.789-2.392-1.761-.886-4.566-1.691-6.887-2.56-.658-1.56-1.527-3.593-2.087-4.822-.995-2.174-2.593-.8-2.593-.8a11.63,11.63,0,0,1-1.995-3.191c-.995-2.174-2.593-1.995-4.783-2.392s-6.784-4.588-6.784-4.588-2.147-1.631-3.033-2.441a16.976,16.976,0,0,1-8.855,7.844c8.529,8.909,25.831,25.836,27.646,27.108,1.995,1.392,1.4,5.381,0,9.371s-6.583,9.784-6.382,16.155S178.2,338.9,178.02,340.9c-.179,1.777-4.158,7.349-5.023,8.545l2.028.228h10.556c-.06-5.349-.054-27.179,3.6-35.876C193.376,303.8,196.566,285.454,196.566,285.454Z" transform="translate(-142.718 -238.494)" fill="none" stroke="#263238" stroke-linecap="round" stroke-linejoin="round" stroke-width="1"/>
      <path id="Path_624" data-name="Path 624" d="M223.934,303.459s-2.479-.761-4.006.576-3.805,8.2-5.148,15.639a20.8,20.8,0,0,0,1.631,12.8s3.136-8.224,4.088-12.231S223.934,303.459,223.934,303.459Z" transform="translate(-169.944 -257.195)" fill="#26242e"/>
      <g id="Group_928" data-name="Group 928" transform="translate(44.467 46.048)" clip-path="url(#clip-path-6)">
        <path id="Path_625" data-name="Path 625" d="M223.18,304.483a6.834,6.834,0,0,1,2.533-.185,7.23,7.23,0,0,1,1.729,1.049l.495-2.076a4.012,4.012,0,0,0-2.408-.4A5.1,5.1,0,0,0,223.18,304.483Z" transform="translate(-218.413 -303.055)" opacity="0.16"/>
      </g>
      <path id="Path_627" data-name="Path 627" d="M223.934,303.459s-2.479-.761-4.006.576-3.805,8.2-5.148,15.639a20.8,20.8,0,0,0,1.631,12.8s3.136-8.224,4.088-12.231S223.934,303.459,223.934,303.459Z" transform="translate(-169.944 -257.195)" fill="none" stroke="#263238" stroke-linecap="round" stroke-linejoin="round" stroke-width="1"/>
      <path id="Path_628" data-name="Path 628" d="M197.87,301.992l3.191,12.964L193.88,298.6" transform="translate(-160.573 -255.076)" fill="none" stroke="#263238" stroke-linecap="round" stroke-linejoin="round" stroke-width="1"/>
      <path id="Path_629" data-name="Path 629" d="M239,371.48h23.254s-6.414-8.154-6.414-10.942,8.806-38.518,9.2-41.111-1.2-4.387-4.387-4.588S245.3,312.045,244.7,310.05c0,0-4.588,16.155-6.18,27.124C237.151,346.584,238.57,366.109,239,371.48Z" transform="translate(-180.682 -260.302)" fill="#26242e"/>
      <g id="Group_929" data-name="Group 929" transform="translate(57.256 49.748)" clip-path="url(#clip-path-7)">
        <path id="Path_630" data-name="Path 630" d="M267.457,315.784c-2.615-.163-11.252-1.935-14.617-3.664l1.223,2.827a24.521,24.521,0,0,0,7.066,2.457c4.05.723,7.817.582,10.279,4.2l.12.179c.152-.7.255-1.185.288-1.413C272.246,317.779,270.648,315.985,267.457,315.784Z" transform="translate(-244.74 -310.995)" opacity="0.16"/>
      </g>
      <path id="Path_632" data-name="Path 632" d="M239,371.48h23.254s-6.414-8.154-6.414-10.942,8.806-38.518,9.2-41.111-1.2-4.387-4.387-4.588S245.3,312.045,244.7,310.05c0,0-4.588,16.155-6.18,27.124C237.151,346.584,238.57,366.109,239,371.48Z" transform="translate(-180.682 -260.302)" fill="none" stroke="#263238" stroke-linecap="round" stroke-linejoin="round" stroke-width="1"/>
      <path id="Path_633" data-name="Path 633" d="M245.19,310.05s-6.153,19.569-6.18,27.124c0,0,8.741-10.583,9.882-18.02S245.19,310.05,245.19,310.05Z" transform="translate(-181.172 -260.302)" fill="#26242e"/>
      <g id="Group_930" data-name="Group 930" transform="translate(57.838 49.748)" clip-path="url(#clip-path-8)">
        <path id="Path_634" data-name="Path 634" d="M248.43,312.55a5.7,5.7,0,0,1,4.778,2.316s-1.207-3.55-3.718-4.816Z" transform="translate(-243.31 -310.05)" opacity="0.16"/>
      </g>
      <path id="Path_636" data-name="Path 636" d="M245.19,310.05s-6.153,19.569-6.18,27.124c0,0,8.741-10.583,9.882-18.02S245.19,310.05,245.19,310.05Z" transform="translate(-181.172 -260.302)" fill="none" stroke="#263238" stroke-linecap="round" stroke-linejoin="round" stroke-width="1"/>
      <path id="Path_637" data-name="Path 637" d="M368.179,411.741s4.506.185,7.458.609a53.94,53.94,0,0,0,5.936.473s-1.631-3.294-3.37-4.224-4.892-2.593-7.534-2.223-6.42,3.033-6.1,3.881S366.288,411.485,368.179,411.741Z" transform="translate(-238.469 -304.243)" fill="#fff"/>
      <g id="Group_931" data-name="Group 931" transform="translate(126.077 102.08)" clip-path="url(#clip-path-9)">
        <path id="Path_638" data-name="Path 638" d="M368.179,411.741s4.506.185,7.458.609a53.94,53.94,0,0,0,5.936.473s-1.631-3.294-3.37-4.224-4.892-2.593-7.534-2.223-6.42,3.033-6.1,3.881S366.288,411.485,368.179,411.741Z" transform="translate(-364.546 -406.323)" fill="#78e44e"/>
        <path id="Path_639" data-name="Path 639" d="M368.179,411.741s4.506.185,7.458.609a53.94,53.94,0,0,0,5.936.473s-1.631-3.294-3.37-4.224-4.892-2.593-7.534-2.223-6.42,3.033-6.1,3.881S366.288,411.485,368.179,411.741Z" transform="translate(-364.546 -406.323)" fill="#fff" opacity="0.5"/>
      </g>
      <path id="Path_641" data-name="Path 641" d="M368.179,411.741s4.506.185,7.458.609a53.94,53.94,0,0,0,5.936.473s-1.631-3.294-3.37-4.224-4.892-2.593-7.534-2.223-6.42,3.033-6.1,3.881S366.288,411.485,368.179,411.741Z" transform="translate(-238.469 -304.243)" fill="none" stroke="#263238" stroke-linecap="round" stroke-linejoin="round" stroke-width="1"/>
      <path id="Path_642" data-name="Path 642" d="M385,412.276s3.571-1.854,4.463-1.826,6.816,4.033,6.523,4.675a1.707,1.707,0,0,1-1.87.7c-.658-.31-4.648-2.006-4.648-2.006l-2.609.614Z" transform="translate(-247.805 -306.127)" fill="#fff"/>
      <g id="Group_932" data-name="Group 932" transform="translate(137.195 104.323)" clip-path="url(#clip-path-10)">
        <path id="Path_643" data-name="Path 643" d="M385,412.276s3.571-1.854,4.463-1.826,6.816,4.033,6.523,4.675-1.7,1.163-1.87.7-4.648-2.006-4.648-2.006l-2.609.614Z" transform="translate(-385 -410.449)" fill="#78e44e"/>
        <path id="Path_644" data-name="Path 644" d="M385,412.276s3.571-1.854,4.463-1.826,6.816,4.033,6.523,4.675-1.7,1.163-1.87.7-4.648-2.006-4.648-2.006l-2.609.614Z" transform="translate(-385 -410.449)" fill="#fff" opacity="0.5"/>
      </g>
      <path id="Path_646" data-name="Path 646" d="M385,412.276s3.571-1.854,4.463-1.826,6.816,4.033,6.523,4.675a1.707,1.707,0,0,1-1.87.7c-.658-.31-4.648-2.006-4.648-2.006l-2.609.614Z" transform="translate(-247.805 -306.127)" fill="none" stroke="#263238" stroke-linecap="round" stroke-linejoin="round" stroke-width="1"/>
      <path id="Path_647" data-name="Path 647" d="M380.31,408.181s4.762-.152,5.708.326,5.218,7.806,4.577,8.339-2.414.375-2.359-.217-3.936-4.517-3.936-4.517l-3.1-.68Z" transform="translate(-245.664 -305.081)" fill="#fff"/>
      <g id="Group_933" data-name="Group 933" transform="translate(134.646 103.077)" clip-path="url(#clip-path-11)">
        <path id="Path_648" data-name="Path 648" d="M380.31,408.181s4.762-.152,5.708.326,5.218,7.806,4.577,8.339-2.414.375-2.359-.217-3.936-4.517-3.936-4.517l-3.1-.68Z" transform="translate(-380.31 -408.158)" fill="#78e44e"/>
        <path id="Path_649" data-name="Path 649" d="M380.31,408.181s4.762-.152,5.708.326,5.218,7.806,4.577,8.339-2.414.375-2.359-.217-3.936-4.517-3.936-4.517l-3.1-.68Z" transform="translate(-380.31 -408.158)" fill="#fff" opacity="0.5"/>
      </g>
      <path id="Path_651" data-name="Path 651" d="M380.31,408.181s4.762-.152,5.708.326,5.218,7.806,4.577,8.339-2.414.375-2.359-.217-3.936-4.517-3.936-4.517l-3.1-.68Z" transform="translate(-245.664 -305.081)" fill="none" stroke="#263238" stroke-linecap="round" stroke-linejoin="round" stroke-width="1"/>
      <path id="Path_652" data-name="Path 652" d="M375.12,406.37s4.822-.158,5.778.332,5.284,7.9,4.631,8.442-2.435.375-2.381-.223-3.984-4.571-3.984-4.571l-3.142-.69Z" transform="translate(-243.295 -304.254)" fill="#fff"/>
      <g id="Group_934" data-name="Group 934" transform="translate(131.825 102.092)" clip-path="url(#clip-path-12)">
        <path id="Path_653" data-name="Path 653" d="M375.12,406.37s4.822-.158,5.778.332,5.284,7.9,4.631,8.442-2.435.375-2.381-.223-3.984-4.571-3.984-4.571l-3.142-.69Z" transform="translate(-375.12 -406.345)" fill="#78e44e"/>
        <path id="Path_654" data-name="Path 654" d="M375.12,406.37s4.822-.158,5.778.332,5.284,7.9,4.631,8.442-2.435.375-2.381-.223-3.984-4.571-3.984-4.571l-3.142-.69Z" transform="translate(-375.12 -406.345)" fill="#fff" opacity="0.5"/>
      </g>
      <path id="Path_656" data-name="Path 656" d="M375.12,406.37s4.822-.158,5.778.332,5.284,7.9,4.631,8.442-2.435.375-2.381-.223-3.984-4.571-3.984-4.571l-3.142-.69Z" transform="translate(-243.295 -304.254)" fill="none" stroke="#263238" stroke-linecap="round" stroke-linejoin="round" stroke-width="1"/>
      <path id="Path_657" data-name="Path 657" d="M272.275,338.116c3.49,5.376,10.5,19,12.54,20.531,3.191,2.392,24.521,8.2,26.575,9.784s1.913,3.18,3.859,3.762a103.555,103.555,0,0,0,12.024,2.511c2.783.261,1.538-1.462,1.538-1.462l-4.745-3.262,4.137-1.022s4.148,4.99,4.925,5.262,2.147,0,2.06-.614c-.152-.984-4.577-9.034-6.148-9.377s-11.105.978-11.105.978-20-13.486-20.357-13.964a27.807,27.807,0,0,0-2.174-4.789c-.978-1.4-1.6-.995-1.6-.995s.4-1.8-.2-2.4l-3.191-3.191-.114.152c-.544-1.087-1.087-2.327-1.685-3.74-1.669-3.93-7.577-14.959-8.572-16.552-.745-1.19-6.985-2.044-10.149-2.4" transform="translate(-195.27 -263.625)" fill="#26242e"/>
      <g id="Group_935" data-name="Group 935" transform="translate(74.629 53.705)" clip-path="url(#clip-path-13)">
        <path id="Path_658" data-name="Path 658" d="M286.156,338.486c2.609,2.316,1.739,2.316,1.158,4.349s.435-.723,2.9-.576,1.739,3.327,1.446,3.908,3.044,1.3,2.462,2.6-3.908,3.185-5.789,5.072,4.919-3.044,7.235-3.185c.707-.049,1.288.043,1.777.033a22.835,22.835,0,0,0-1.968-4.175c-1-1.4-1.6-.995-1.6-.995s.4-1.8-.2-2.4l-3.191-3.191-.114.152c-.544-1.087-1.087-2.326-1.685-3.74-1.669-3.93-7.577-14.959-8.572-16.552-.745-1.19-6.985-2.044-10.149-2.4l.288,2.517.071.054s3.908.723,5.213.87,2.9,1.3,2.75,2.174-3.908,4.778-2.75,5.072,2.462-2.9,3.767-2.462S283.53,336.171,286.156,338.486Z" transform="translate(-269.886 -317.357)" opacity="0.16"/>
      </g>
      <path id="Path_660" data-name="Path 660" d="M272.275,338.116c3.49,5.376,10.5,19,12.54,20.531,3.191,2.392,24.521,8.2,26.575,9.784s1.913,3.18,3.859,3.762a103.555,103.555,0,0,0,12.024,2.511c2.783.261,1.538-1.462,1.538-1.462l-4.745-3.262,4.137-1.022s4.148,4.99,4.925,5.262,2.147,0,2.06-.614c-.152-.984-4.577-9.034-6.148-9.377s-11.105.978-11.105.978-20-13.486-20.357-13.964a27.807,27.807,0,0,0-2.174-4.789c-.978-1.4-1.6-.995-1.6-.995s.4-1.8-.2-2.4l-3.191-3.191-.114.152c-.544-1.087-1.087-2.327-1.685-3.74-1.669-3.93-7.577-14.959-8.572-16.552-.745-1.19-6.985-2.044-10.149-2.4" transform="translate(-195.27 -263.625)" fill="none" stroke="#263238" stroke-linecap="round" stroke-linejoin="round" stroke-width="1"/>
      <path id="Path_661" data-name="Path 661" d="M274.06,342c-.147.489-.272.978-.37,1.478" transform="translate(-197 -274.885)" fill="none" stroke="#263238" stroke-linecap="round" stroke-linejoin="round" stroke-width="1"/>
      <path id="Path_662" data-name="Path 662" d="M280.493,325.45a29.1,29.1,0,0,0-4.283,6.441" transform="translate(-198.151 -267.331)" fill="none" stroke="#263238" stroke-linecap="round" stroke-linejoin="round" stroke-width="1"/>
      <path id="Path_663" data-name="Path 663" d="M298.78,377.428c1.468-2.174,3.805-4.93,6.382-5.718" transform="translate(-208.452 -288.445)" fill="none" stroke="#263238" stroke-linecap="round" stroke-linejoin="round" stroke-width="1"/>
      <path id="Path_664" data-name="Path 664" d="M295.79,386.073s.261-.511.728-1.283" transform="translate(-207.087 -294.415)" fill="none" stroke="#263238" stroke-linecap="round" stroke-linejoin="round" stroke-width="1"/>
      <path id="Path_665" data-name="Path 665" d="M295.79,373.379s2.669-6.675,5.338-8.393,1.142,1.718,1.142,1.718" transform="translate(-207.087 -285.157)" fill="none" stroke="#263238" stroke-linecap="round" stroke-linejoin="round" stroke-width="1"/>
      <path id="Path_666" data-name="Path 666" d="M323.87,397.009c2.06,1.593,1.913,3.18,3.859,3.762a103.553,103.553,0,0,0,12.024,2.511c2.783.261,1.538-1.462,1.538-1.462l-4.745-3.261,4.137-1.022s4.147,4.99,4.925,5.262,2.256.37,2.06-.614c-.381-1.9-4.577-9.034-6.148-9.377s-11.105.978-11.105.978-18.215-12.5-20.21-13.856c-7.735.745-11.415,4.794-12.964,7.224l.054.043C300.485,389.611,321.815,395.417,323.87,397.009Z" transform="translate(-207.749 -292.197)" fill="#fff"/>
      <g id="Group_936" data-name="Group 936" transform="translate(89.491 87.733)" clip-path="url(#clip-path-14)">
        <path id="Path_667" data-name="Path 667" d="M353.582,402.224c-.989-2.419-4.577-9.034-6.148-9.377s-11.105.978-11.105.978-18.215-12.5-20.21-13.856a20.252,20.252,0,0,0-5.909,1.43c2.876,1.631,22.042,12.5,24.461,12.986,2.566.544,11.127-.864,12.633.147.957.641,3.805,5.159,5.729,8.366C353.582,402.817,353.783,402.713,353.582,402.224Z" transform="translate(-303.16 -379.948)" fill="#78e44e"/>
        <path id="Path_668" data-name="Path 668" d="M353.582,402.224c-1.544-3.463-4.577-9.034-6.148-9.377s-11.105.978-11.105.978-18.215-12.5-20.21-13.856a20.252,20.252,0,0,0-5.909,1.43c2.876,1.631,22.042,12.5,24.461,12.986,2.566.544,11.127-.864,12.633.147.957.641,3.805,5.159,5.729,8.366C353.582,402.817,353.8,402.708,353.582,402.224Z" transform="translate(-303.16 -379.948)" fill="#fff" opacity="0.5"/>
      </g>
      <path id="Path_670" data-name="Path 670" d="M323.87,397.009c2.06,1.593,1.913,3.18,3.859,3.762a103.553,103.553,0,0,0,12.024,2.511c2.783.261,1.538-1.462,1.538-1.462l-4.745-3.261,4.137-1.022s4.147,4.99,4.925,5.262,2.256.37,2.06-.614c-.381-1.9-4.577-9.034-6.148-9.377s-11.105.978-11.105.978-18.215-12.5-20.21-13.856c-7.735.745-11.415,4.794-12.964,7.224l.054.043C300.485,389.611,321.815,395.417,323.87,397.009Z" transform="translate(-207.749 -292.197)" fill="none" stroke="#263238" stroke-linecap="round" stroke-linejoin="round" stroke-width="1"/>
      <path id="Path_671" data-name="Path 671" d="M241.49,236.73l-16.373,6.833a24.141,24.141,0,0,1-2.1,8.322c-1.935,4.093-.8,11.839,1.055,16.019s10.051,2.544,13.046,2.022a32.286,32.286,0,0,0,5.941-1.734,5.523,5.523,0,0,0,5.305-.739S239.6,242.856,241.49,236.73Z" transform="translate(-173.411 -226.837)" fill="#fff"/>
      <g id="Group_937" data-name="Group 937" transform="translate(48.596 9.893)" clip-path="url(#clip-path-15)">
        <path id="Path_672" data-name="Path 672" d="M241.49,236.73l-16.373,6.833a24.141,24.141,0,0,1-2.1,8.322c-1.935,4.093-.8,11.839,1.055,16.019a3.805,3.805,0,0,0,1.44,1.631v-.315s-3.039-7.529-2.462-11.872,3.044-6.523,3.332-9.268.141-4.05,5.648-6.077,7.817-3.908,8.393-1.886,2.9,15.351,4.49,18.536,1.446,6.523-1.011,7.963a34.543,34.543,0,0,1-7.92,3.49l1.158-.2a32.291,32.291,0,0,0,5.941-1.734,5.523,5.523,0,0,0,5.305-.739S239.6,242.856,241.49,236.73Z" transform="translate(-222.007 -236.73)" fill="#e0bfea"/>
        <path id="Path_673" data-name="Path 673" d="M241.49,236.73l-16.373,6.833a24.141,24.141,0,0,1-2.1,8.322c-1.935,4.093-.8,11.839,1.055,16.019a3.805,3.805,0,0,0,1.44,1.631v-.315s-3.039-7.529-2.462-11.872,3.044-6.523,3.332-9.268.141-4.05,5.648-6.077,7.817-3.908,8.393-1.886,2.9,15.351,4.49,18.536,1.446,6.523-1.011,7.963a34.543,34.543,0,0,1-7.92,3.49l1.158-.2a32.291,32.291,0,0,0,5.941-1.734,5.523,5.523,0,0,0,5.305-.739S239.6,242.856,241.49,236.73Z" transform="translate(-222.007 -236.73)" fill="#e0bfea" opacity="0.5"/>
      </g>
      <path id="Path_675" data-name="Path 675" d="M241.49,236.73l-16.373,6.833a24.141,24.141,0,0,1-2.1,8.322c-1.935,4.093-.8,11.839,1.055,16.019s10.051,2.544,13.046,2.022a32.286,32.286,0,0,0,5.941-1.734,5.523,5.523,0,0,0,5.305-.739S239.6,242.856,241.49,236.73Z" transform="translate(-173.411 -226.837)" fill="none" stroke="#263238" stroke-linecap="round" stroke-linejoin="round" stroke-width="1"/>
      <path id="Path_676" data-name="Path 676" d="M238.625,256.44a8.507,8.507,0,0,1-.353,2.848c-.435,1.087-4.539,5.36-4.414,5.822s.495,1.946,1.223,2.087" transform="translate(-178.819 -235.833)" fill="none" stroke="#263238" stroke-linecap="round" stroke-linejoin="round" stroke-width="1"/>
      <path id="Path_677" data-name="Path 677" d="M251,263.095c.571-1.142,2.446-.027,2.419,2.544" transform="translate(-186.644 -238.666)" fill="none" stroke="#263238" stroke-linecap="round" stroke-linejoin="round" stroke-width="1"/>
      <path id="Path_678" data-name="Path 678" d="M233.9,257.217s1.6-.7,3.028,1.886" transform="translate(-178.839 -236.148)" fill="none" stroke="#263238" stroke-linecap="round" stroke-linejoin="round" stroke-width="1"/>
      <path id="Path_679" data-name="Path 679" d="M246.82,270.4a7.914,7.914,0,0,1,4.963,2.082" transform="translate(-184.736 -242.205)" fill="none" stroke="#263238" stroke-linecap="round" stroke-linejoin="round" stroke-width="0.5"/>
      <path id="Path_680" data-name="Path 680" d="M230.35,264.15a10.531,10.531,0,0,1,2.772.766" transform="translate(-177.219 -239.352)" fill="none" stroke="#263238" stroke-linecap="round" stroke-linejoin="round" stroke-width="0.5"/>
      <path id="Path_681" data-name="Path 681" d="M238.086,250.643a3.082,3.082,0,0,0-2.751-.065c-1.462.7-2.359,1.473-2.261.576s1.816-1.886,2.332-2.017S238.232,248.648,238.086,250.643Z" transform="translate(-178.459 -232.449)" fill="#263238"/>
      <path id="Path_682" data-name="Path 682" d="M249.84,248a12.432,12.432,0,0,1,3.533,4.6c1.087,2.718,1.946-.25,1.087-2.028S251.117,246.9,249.84,248Z" transform="translate(-186.115 -231.831)" fill="#263238"/>
      <path id="Path_683" data-name="Path 683" d="M268.251,298.03c0,1.267-.718,2.294-1.6,2.294s-1.593-1.027-1.593-2.294.712-4.49,1.593-4.49S268.251,296.763,268.251,298.03Z" transform="translate(-193.061 -252.767)" fill="#9a5dba" stroke="#263238" stroke-linecap="round" stroke-linejoin="round" stroke-width="1"/>
      <path id="Path_684" data-name="Path 684" d="M250.984,262.56a3.32,3.32,0,0,0-.147.511c-.158.8-.315,2.484,0,2.555s1.087-1.5,1.223-2.3a3.07,3.07,0,0,0,.054-.478A9.9,9.9,0,0,0,250.984,262.56Z" transform="translate(-186.487 -238.627)" fill="#263238"/>
      <path id="Path_685" data-name="Path 685" d="M234.017,256.98a3.166,3.166,0,0,0-.114.435c-.163.8-.158,2.571.185,2.636s.9-1.587,1.06-2.392a3.343,3.343,0,0,0,.065-.592A3.081,3.081,0,0,0,234.017,256.98Z" transform="translate(-178.793 -236.069)" fill="#263238"/>
      <path id="Path_686" data-name="Path 686" d="M251,262.671l.544-1.011a3.93,3.93,0,0,1,2.218,1.283" transform="translate(-186.644 -238.216)" fill="none" stroke="#263238" stroke-linecap="round" stroke-linejoin="round" stroke-width="0.75"/>
      <path id="Path_687" data-name="Path 687" d="M234.2,256.458l.544-.636s.234-.114,1.517.467" transform="translate(-178.976 -235.547)" fill="none" stroke="#263238" stroke-linecap="round" stroke-linejoin="round" stroke-width="0.75"/>
      <path id="Path_688" data-name="Path 688" d="M230.41,282.71s.913-1.68,2.136-1.68,2.136,2.745,2.136,2.745" transform="translate(-177.246 -247.057)" fill="none" stroke="#263238" stroke-linecap="round" stroke-linejoin="round" stroke-width="1"/>
    </g>
    <g id="freepik--Mug--inject-2" transform="translate(95.806 247.086)">
      <path id="Path_689" data-name="Path 689" d="M154.332,406.409a9.617,9.617,0,0,1-3.425-.815,1.185,1.185,0,1,1,.935-2.174,5.915,5.915,0,0,0,2.87.587c.69-.772,1.75-5.436.381-7.686-.31-.5-.6-.592-.788-.614a3.717,3.717,0,0,0-2.337,1.087,1.188,1.188,0,1,1-1.631-1.729c.212-.207,2.174-1.973,4.267-1.691a3.414,3.414,0,0,1,2.49,1.718c2.017,3.289.636,9.545-.913,10.785A2.925,2.925,0,0,1,154.332,406.409Z" transform="translate(-139.183 -392.385)" fill="#fff"/>
      <g id="Group_938" data-name="Group 938" transform="translate(10.781 0.959)" clip-path="url(#clip-path-16)">
        <path id="Path_690" data-name="Path 690" d="M157.031,397.027A2.24,2.24,0,0,0,155.4,395.7c-1.359-.217-2.636,1.147-2.778,1.3a1.022,1.022,0,0,0-.114,1.136,1.175,1.175,0,0,0,.571-.294,3.892,3.892,0,0,1,2.337-1.087c.19,0,.478.114.788.614,1.37,2.229.31,6.914-.381,7.686a5.927,5.927,0,0,1-2.87-.587,1.191,1.191,0,0,0-.424-.092.9.9,0,0,0,.457.723,5.436,5.436,0,0,0,2.223.631,1.712,1.712,0,0,0,1.212-.424C157.444,404.365,158.346,399.554,157.031,397.027Z" transform="translate(-151.07 -394.409)" fill="#78e44e"/>
        <path id="Path_691" data-name="Path 691" d="M157.031,397.027A2.24,2.24,0,0,0,155.4,395.7c-1.359-.217-2.636,1.147-2.778,1.3a1.022,1.022,0,0,0-.114,1.136,1.175,1.175,0,0,0,.571-.294,3.892,3.892,0,0,1,2.337-1.087c.19,0,.478.114.788.614,1.37,2.229.31,6.914-.381,7.686a5.927,5.927,0,0,1-2.87-.587,1.191,1.191,0,0,0-.424-.092.9.9,0,0,0,.457.723,5.436,5.436,0,0,0,2.223.631,1.712,1.712,0,0,0,1.212-.424C157.444,404.365,158.346,399.554,157.031,397.027Z" transform="translate(-151.07 -394.409)" fill="#fff" opacity="0.5"/>
      </g>
      <path id="Path_693" data-name="Path 693" d="M154.332,406.409a9.617,9.617,0,0,1-3.425-.815,1.185,1.185,0,1,1,.935-2.174,5.915,5.915,0,0,0,2.87.587c.69-.772,1.75-5.436.381-7.686-.31-.5-.6-.592-.788-.614a3.717,3.717,0,0,0-2.337,1.087,1.188,1.188,0,1,1-1.631-1.729c.212-.207,2.174-1.973,4.267-1.691a3.414,3.414,0,0,1,2.49,1.718c2.017,3.289.636,9.545-.913,10.785A2.925,2.925,0,0,1,154.332,406.409Z" transform="translate(-139.183 -392.385)" fill="none" stroke="#263238" stroke-linecap="round" stroke-linejoin="round" stroke-width="1"/>
      <rect id="Rectangle_4941" data-name="Rectangle 4941" width="13.073" height="17.351" fill="#fff"/>
      <g id="Group_939" data-name="Group 939" clip-path="url(#clip-path-17)">
        <rect id="Rectangle_4942" data-name="Rectangle 4942" width="5.354" height="17.351" fill="#78e44e"/>
        <rect id="Rectangle_4943" data-name="Rectangle 4943" width="5.354" height="17.351" fill="#fff" opacity="0.5"/>
      </g>
      <rect id="Rectangle_4945" data-name="Rectangle 4945" width="13.073" height="17.351" fill="none" stroke="#263238" stroke-linecap="round" stroke-linejoin="round" stroke-width="1"/>
    </g>
    <g id="freepik--Device--inject-2" transform="translate(123.021 231.061)">
      <path id="Path_694" data-name="Path 694" d="M237.894,395.236H182.046l-1.821-30.7a2.087,2.087,0,0,1,2.038-2.435h55.39a2.087,2.087,0,0,1,2.06,2.435Z" transform="translate(-180.196 -362.1)" fill="#263238" stroke="#263238" stroke-linecap="round" stroke-linejoin="round" stroke-width="1"/>
      <path id="Path_695" data-name="Path 695" d="M188.66,363.45h52.455a2.033,2.033,0,0,1,2.028,2.359" transform="translate(-184.059 -362.716)" fill="none" stroke="#fff" stroke-linecap="round" stroke-linejoin="round" stroke-width="1"/>
      <path id="Path_696" data-name="Path 696" d="M181,365.325a2.049,2.049,0,0,1,2.055-1.875" transform="translate(-180.563 -362.716)" fill="none" stroke="#fff" stroke-linecap="round" stroke-linejoin="round" stroke-width="1"/>
      <rect id="Rectangle_4946" data-name="Rectangle 4946" width="56.315" height="2.99" transform="translate(1.616 30.147)" fill="#fff" stroke="#263238" stroke-linecap="round" stroke-linejoin="round" stroke-width="1"/>
      <ellipse id="Ellipse_70" data-name="Ellipse 70" cx="3.99" cy="2.392" rx="3.99" ry="2.392" transform="translate(25.583 14.296)" fill="#fff" stroke="#263238" stroke-linecap="round" stroke-linejoin="round" stroke-width="1"/>
    </g>
    <g id="freepik--Table--inject-2" transform="translate(56.146 263.844)">
      <rect id="Rectangle_4947" data-name="Rectangle 4947" width="209.745" height="5.093" transform="translate(0)" fill="#263238"/>
    </g>
    <g id="freepik--pop-up-window--inject-2" transform="translate(104.443 75)">
      <rect id="Rectangle_4948" data-name="Rectangle 4948" width="113.222" height="70.214" rx="11.33" fill="#26242e"/>
      <circle id="Ellipse_71" data-name="Ellipse 71" cx="16.786" cy="16.786" r="16.786" transform="translate(37.374 9.867) rotate(-9.13)" fill="url(#linear-gradient)"/>
      <path id="Path_697" data-name="Path 697" d="M242.193,112.446l-5.593,7.181a2.136,2.136,0,0,1-1.772.989,1.843,1.843,0,0,1-1.3-.516,1.68,1.68,0,0,1-.544-1.288,2.523,2.523,0,0,1,.544-1.484l6.376-7.887-5.979-7.893a2.175,2.175,0,0,1-.435-1.283,2,2,0,0,1,.636-1.473,2.028,2.028,0,0,1,1.468-.625,2.1,2.1,0,0,1,1.75.989l5.4,7.115,5.436-7a2.31,2.31,0,0,1,1.864-1.125,1.859,1.859,0,0,1,1.8,1.8,1.9,1.9,0,0,1-.413,1.158l-6.4,8.186,6.18,8.154a2.1,2.1,0,0,1,.462,1.283,1.865,1.865,0,0,1-.647,1.424,2.142,2.142,0,0,1-1.484.6,2.109,2.109,0,0,1-1.761-.989Z" transform="translate(-185.71 -85.566)" fill="#fff"/>
      <path id="Path_698" data-name="Path 698" d="M251.167,173.584H187.182a4.892,4.892,0,0,1-4.892-4.892h0a4.892,4.892,0,0,1,4.892-4.892h63.984a4.892,4.892,0,0,1,4.892,4.892h0A4.892,4.892,0,0,1,251.167,173.584Z" transform="translate(-162.574 -115.53)" fill="#fff"/>
      <path id="Path_699" data-name="Path 699" d="M206.485,172.975a.315.315,0,0,1-.228-.1.332.332,0,0,1-.1-.245.424.424,0,0,1,.06-.217l.489-.761h-1a.326.326,0,0,1-.25-.1.359.359,0,0,1,0-.467.326.326,0,0,1,.25-.1l.984.027-.435-.707a.494.494,0,0,1-.071-.239.331.331,0,0,1,.1-.245.326.326,0,0,1,.234-.1.31.31,0,0,1,.288.185l.478.853.457-.815a.381.381,0,0,1,.326-.223.315.315,0,0,1,.228.1.31.31,0,0,1,.1.234.407.407,0,0,1-.065.217l-.478.766.995-.027a.321.321,0,0,1,.25.1.359.359,0,0,1,0,.468.321.321,0,0,1-.25.1h-1.006l.446.7a.576.576,0,0,1,.082.277.326.326,0,0,1-.092.239.31.31,0,0,1-.223.1.353.353,0,0,1-.315-.212l-.451-.8-.451.8A.364.364,0,0,1,206.485,172.975Z" transform="translate(-173.109 -118.237)"/>
      <path id="Path_700" data-name="Path 700" d="M215.665,172.952a.315.315,0,0,1-.228-.1.332.332,0,0,1-.1-.245.424.424,0,0,1,.06-.217l.489-.761h-1a.326.326,0,0,1-.25-.1.359.359,0,0,1,0-.467.326.326,0,0,1,.25-.1l.984.027-.462-.734a.5.5,0,0,1-.071-.239.332.332,0,0,1,.1-.245.326.326,0,0,1,.234-.1.31.31,0,0,1,.288.185l.478.853.457-.815a.38.38,0,0,1,.326-.223.315.315,0,0,1,.228.1.31.31,0,0,1,.1.234.408.408,0,0,1-.065.217L217,171l.995-.027a.321.321,0,0,1,.25.1.359.359,0,0,1,0,.467.321.321,0,0,1-.25.1h-1.006l.446.7a.576.576,0,0,1,.082.277.326.326,0,0,1-.092.239.31.31,0,0,1-.223.1.348.348,0,0,1-.315-.212l-.451-.8-.451.8A.364.364,0,0,1,215.665,172.952Z" transform="translate(-177.299 -118.214)"/>
      <path id="Path_701" data-name="Path 701" d="M224.845,172.952a.315.315,0,0,1-.228-.1.332.332,0,0,1-.1-.245.424.424,0,0,1,.06-.217l.489-.761h-1a.326.326,0,0,1-.25-.1.359.359,0,0,1,0-.467.326.326,0,0,1,.25-.1l.984.027-.462-.734a.5.5,0,0,1-.071-.239.332.332,0,0,1,.1-.245.326.326,0,0,1,.234-.1.31.31,0,0,1,.288.185l.478.853.457-.815a.38.38,0,0,1,.326-.223.315.315,0,0,1,.228.1.31.31,0,0,1,.1.234.408.408,0,0,1-.065.217l-.478.766.995-.027a.321.321,0,0,1,.25.1.359.359,0,0,1,0,.467.321.321,0,0,1-.25.1h-1.006l.446.7a.576.576,0,0,1,.082.277.326.326,0,0,1-.092.239.31.31,0,0,1-.223.1.348.348,0,0,1-.315-.212l-.451-.8-.451.8A.364.364,0,0,1,224.845,172.952Z" transform="translate(-181.489 -118.214)"/>
      <path id="Path_702" data-name="Path 702" d="M234.065,172.952a.315.315,0,0,1-.228-.1.332.332,0,0,1-.1-.245.424.424,0,0,1,.06-.217l.489-.761h-1a.326.326,0,0,1-.25-.1.359.359,0,0,1,0-.467.326.326,0,0,1,.25-.1l.984.027-.462-.734a.494.494,0,0,1-.071-.239.331.331,0,0,1,.1-.245.326.326,0,0,1,.234-.1.31.31,0,0,1,.288.185l.478.853.457-.815a.381.381,0,0,1,.326-.223.315.315,0,0,1,.228.1.31.31,0,0,1,.1.234.408.408,0,0,1-.065.217L235.4,171l.995-.027a.321.321,0,0,1,.25.1.359.359,0,0,1,0,.467.321.321,0,0,1-.25.1h-1.006l.446.7a.576.576,0,0,1,.082.277.326.326,0,0,1-.092.239.31.31,0,0,1-.223.1.353.353,0,0,1-.315-.212l-.451-.8-.451.8A.364.364,0,0,1,234.065,172.952Z" transform="translate(-185.697 -118.214)"/>
      <path id="Path_703" data-name="Path 703" d="M243.2,172.952a.315.315,0,0,1-.228-.1.332.332,0,0,1-.1-.245.484.484,0,0,1,.06-.217l.489-.761h-1a.326.326,0,0,1-.25-.1.359.359,0,0,1,0-.467.326.326,0,0,1,.25-.1l.984.027-.462-.734a.5.5,0,0,1-.071-.239.332.332,0,0,1,.1-.245.326.326,0,0,1,.234-.1.31.31,0,0,1,.288.185l.478.853.457-.815a.38.38,0,0,1,.326-.223.3.3,0,0,1,.228.1.31.31,0,0,1,.1.234.408.408,0,0,1-.065.217l-.478.766.995-.027a.321.321,0,0,1,.25.1.359.359,0,0,1,0,.467.321.321,0,0,1-.25.1h-1.006l.446.7a.576.576,0,0,1,.082.277.326.326,0,0,1-.092.239.31.31,0,0,1-.223.1.353.353,0,0,1-.315-.212l-.451-.8-.451.8A.364.364,0,0,1,243.2,172.952Z" transform="translate(-189.869 -118.214)"/>
      <path id="Path_704" data-name="Path 704" d="M252.385,172.952a.315.315,0,0,1-.228-.1.332.332,0,0,1-.1-.245.484.484,0,0,1,.06-.217l.489-.761h-.995a.332.332,0,0,1-.255-.1.359.359,0,0,1,0-.467.332.332,0,0,1,.255-.1l.978.027-.462-.734a.5.5,0,0,1-.071-.239.332.332,0,0,1,.1-.245.326.326,0,0,1,.234-.1.31.31,0,0,1,.288.185l.478.853.457-.815a.38.38,0,0,1,.326-.223.3.3,0,0,1,.228.1.31.31,0,0,1,.1.234.408.408,0,0,1-.065.217l-.478.766.995-.027a.321.321,0,0,1,.25.1.359.359,0,0,1,0,.467.321.321,0,0,1-.25.1h-1.006l.446.7a.576.576,0,0,1,.082.277.326.326,0,0,1-.092.239.31.31,0,0,1-.223.1.353.353,0,0,1-.315-.212l-.451-.8-.451.8a.364.364,0,0,1-.321.223Z" transform="translate(-194.059 -118.214)"/>
      <path id="Path_705" data-name="Path 705" d="M261.565,172.975a.315.315,0,0,1-.228-.1.332.332,0,0,1-.1-.245.424.424,0,0,1,.06-.217l.489-.761h-1a.326.326,0,0,1-.25-.1.359.359,0,0,1,0-.467.326.326,0,0,1,.25-.1l.984.027-.478-.707a.5.5,0,0,1-.071-.239.332.332,0,0,1,.1-.245.326.326,0,0,1,.234-.1.31.31,0,0,1,.288.185l.478.853.457-.815a.381.381,0,0,1,.326-.223.3.3,0,0,1,.228.1.31.31,0,0,1,.1.234.407.407,0,0,1-.065.217l-.478.766.995-.027a.321.321,0,0,1,.25.1.359.359,0,0,1,0,.468.321.321,0,0,1-.25.1h-1.006l.446.7a.577.577,0,0,1,.082.277.326.326,0,0,1-.092.239.31.31,0,0,1-.223.1.353.353,0,0,1-.315-.212l-.451-.8-.451.8A.364.364,0,0,1,261.565,172.975Z" transform="translate(-198.249 -118.237)"/>
      <path id="Path_706" data-name="Path 706" d="M270.745,172.952a.315.315,0,0,1-.228-.1.331.331,0,0,1-.1-.245.483.483,0,0,1,.06-.217l.489-.761h-.995a.31.31,0,0,1-.25-.1.343.343,0,0,1,0-.467.31.31,0,0,1,.25-.1l.978.027-.462-.734a.5.5,0,0,1-.071-.239.332.332,0,0,1,.332-.342.31.31,0,0,1,.288.185l.478.853.457-.815a.381.381,0,0,1,.326-.223.293.293,0,0,1,.228.1.31.31,0,0,1,.1.234.408.408,0,0,1-.065.217l-.478.766.995-.027a.321.321,0,0,1,.25.1.359.359,0,0,1,0,.467.321.321,0,0,1-.25.1h-1.006l.446.7a.576.576,0,0,1,.081.277.326.326,0,0,1-.315.337.353.353,0,0,1-.315-.212l-.451-.8-.451.8A.364.364,0,0,1,270.745,172.952Z" transform="translate(-202.439 -118.214)"/>
      <path id="Path_707" data-name="Path 707" d="M279.924,172.952a.315.315,0,0,1-.228-.1.331.331,0,0,1-.1-.245.484.484,0,0,1,.06-.217l.489-.761h-1a.31.31,0,0,1-.245-.1.342.342,0,0,1,0-.467.31.31,0,0,1,.245-.1l.984.027-.462-.734a.5.5,0,0,1-.071-.239.332.332,0,0,1,.332-.342.31.31,0,0,1,.288.185l.478.853.457-.815a.38.38,0,0,1,.326-.223.294.294,0,0,1,.228.1.31.31,0,0,1,.1.234.408.408,0,0,1-.065.217l-.478.766.995-.027a.321.321,0,0,1,.25.1.359.359,0,0,1,0,.467.321.321,0,0,1-.25.1h-1.006l.446.7a.576.576,0,0,1,.082.277.326.326,0,0,1-.315.337.353.353,0,0,1-.315-.212l-.451-.8-.451.8A.364.364,0,0,1,279.924,172.952Z" transform="translate(-206.629 -118.214)"/>
      <path id="Path_708" data-name="Path 708" d="M289.065,172.952a.315.315,0,0,1-.228-.1.332.332,0,0,1-.1-.245.484.484,0,0,1,.06-.217l.489-.761h-1a.31.31,0,0,1-.245-.1.342.342,0,0,1,0-.467.31.31,0,0,1,.245-.1l.984.027-.462-.734a.5.5,0,0,1-.071-.239.332.332,0,0,1,.1-.245.326.326,0,0,1,.234-.1.31.31,0,0,1,.288.185l.478.853.457-.815a.38.38,0,0,1,.326-.223.294.294,0,0,1,.228.1.31.31,0,0,1,.1.234.408.408,0,0,1-.065.217L290.4,171l.995-.027a.321.321,0,0,1,.25.1.359.359,0,0,1,0,.467.321.321,0,0,1-.25.1h-1.006l.446.7a.576.576,0,0,1,.082.277.326.326,0,0,1-.092.239.31.31,0,0,1-.223.1.353.353,0,0,1-.315-.212l-.451-.8-.451.8A.364.364,0,0,1,289.065,172.952Z" transform="translate(-210.8 -118.214)"/>
      <line id="Line_214" data-name="Line 214" x2="6.648" transform="translate(95.365 66.762)" fill="none" stroke="#fff" stroke-linecap="round" stroke-linejoin="round" stroke-width="3"/>
      <path id="Path_709" data-name="Path 709" d="M151.83,107.77v44.155a4.822,4.822,0,0,0,4.822,4.822h81.074" transform="translate(-148.672 -89.957)" fill="none" stroke="#fff" stroke-linecap="round" stroke-linejoin="round" stroke-width="3"/>
      <line id="Line_215" data-name="Line 215" y2="6.621" transform="translate(3.158 6.104)" fill="none" stroke="#fff" stroke-linecap="round" stroke-linejoin="round" stroke-width="3"/>
    </g>
  </g>
</svg>
