<svg xmlns="http://www.w3.org/2000/svg" width="172" height="172" viewBox="0 0 172 172">
  <g id="attachment" transform="translate(0 0.345)">
    <circle id="Ellipse_12" data-name="Ellipse 12" cx="86" cy="86" r="86" transform="translate(0 -0.345)" fill="#9a5dba"/>
    <path id="Path_41" data-name="Path 41" d="M170.522,275.459a85.879,85.879,0,0,0,75.246-69.208l-39.513-39.513-9.288,8.924-16.931-17.11-12.311-1.681-6.263,6.263v15.676l3.468,12.5,3.781,8.545-54.932,18.857Z" transform="translate(-75.631 -104.28)" fill="#5a366d"/>
    <rect id="Rectangle_7" data-name="Rectangle 7" width="92.476" height="51.978" transform="translate(38.147 62.458)" fill="#fff"/>
    <g id="Group_6" data-name="Group 6" transform="translate(38.147 62.458)">
      <rect id="Rectangle_8" data-name="Rectangle 8" width="44.984" height="51.978" transform="translate(47.492)" fill="#d0d1d3"/>
    </g>
    <path id="Path_2353" data-name="Path 2353" d="M0,0H47.427V47.427H0Z" transform="translate(114.57 113.01) rotate(-174.232)" fill="#ffc61b"/>
    <path id="Path_44" data-name="Path 44" d="M298.874,191.7l-23.16-2.339-5.622,47.1,24.015,2.426Z" transform="translate(-179.538 -125.878)" fill="#eaa22f"/>
    <path id="Path_45" data-name="Path 45" d="M258.787,195.568a6.6,6.6,0,0,1-6.592-6.592V163.682a11.664,11.664,0,0,1,11.65-11.65,11.527,11.527,0,0,1,11.65,11.489H272.43a8.457,8.457,0,0,0-8.584-8.423,8.593,8.593,0,0,0-8.584,8.584v25.294a3.526,3.526,0,0,0,7.051,0V163.682h3.066v25.294A6.6,6.6,0,0,1,258.787,195.568Z" transform="translate(-167.641 -101.064)" fill="#ff5419"/>
    <path id="Path_46" data-name="Path 46" d="M286.81,152.033c-.022,0-.045,0-.068,0V155.1c.022,0,.045,0,.068,0a8.457,8.457,0,0,1,8.584,8.423h3.066A11.526,11.526,0,0,0,286.81,152.033Z" transform="translate(-190.605 -101.065)" fill="#c92f00"/>
  </g>
</svg>
