<svg xmlns="http://www.w3.org/2000/svg" width="172" height="172" viewBox="0 0 172 172">
  <g id="Group_1307" data-name="Group 1307" transform="translate(-102 -301)">
    <g id="approve" transform="translate(102 301)">
      <path id="Path_2826" data-name="Path 2826" d="M85.922,0A85.922,85.922,0,1,1,0,85.922,85.922,85.922,0,0,1,85.922,0Z" fill="#9a5dba"/>
      <path id="Path_29" data-name="Path 29" d="M253.8,175.326c0-.307-.008-.612-.012-.918L212.676,133.3l-49.318,43.209L119.286,217.1l45.9,45.9c.309,0,.616.012.925.012A87.685,87.685,0,0,0,253.8,175.326Z" transform="translate(-81.798 -91.01)" fill="#5a366d"/>
      <path id="Path_30" data-name="Path 30" d="M201.326,214.315H120.284a6.573,6.573,0,0,1-6.508-6.636V134.636A6.573,6.573,0,0,1,120.284,128h81.042a6.573,6.573,0,0,1,6.508,6.636v73.044A6.573,6.573,0,0,1,201.326,214.315Z" transform="translate(-74.806 -85.158)" fill="#fbfbfb"/>
      <path id="Path_31" data-name="Path 31" d="M297.972,128H256v86.315h41.972a6.689,6.689,0,0,0,6.741-6.636V134.636A6.689,6.689,0,0,0,297.972,128Z" transform="translate(-170.648 -85.158)" fill="#d0d1d3"/>
      <path id="Path_32" data-name="Path 32" d="M113.988,367.049a6.584,6.584,0,0,0,6.438,5.806h81.038a6.584,6.584,0,0,0,6.438-5.806Z" transform="translate(-74.945 -243.826)" fill="#91c9ee"/>
      <path id="Path_33" data-name="Path 33" d="M256,367.049v5.806h41.972a6.737,6.737,0,0,0,6.669-5.806Z" transform="translate(-170.647 -243.826)" fill="#3fa6eb"/>
      <path id="Path_34" data-name="Path 34" d="M207.836,134.741A6.628,6.628,0,0,0,201.328,128H120.286a6.627,6.627,0,0,0-6.508,6.741v7.105h94.058Z" transform="translate(-74.807 -85.072)" fill="#91c9ee"/>
      <path id="Path_35" data-name="Path 35" d="M304.714,134.741A6.741,6.741,0,0,0,297.972,128H256v13.847h48.714Z" transform="translate(-170.648 -85.072)" fill="#3fa6eb"/>
      <circle id="Ellipse_11" data-name="Ellipse 11" cx="19.485" cy="19.485" r="19.485" transform="translate(66.514 69.97)" fill="#ffc61b"/>
      <path id="Path_38" data-name="Path 38" d="M275.486,228.94A19.486,19.486,0,0,0,256,209.454v38.971A19.486,19.486,0,0,0,275.486,228.94Z" transform="translate(-170.211 -139.484)" fill="#eaa22f"/>
      <path id="Path_39" data-name="Path 39" d="M232.622,259.381l-.095,0a2.363,2.363,0,0,1-1.72-.848l-4.428-5.314a2.362,2.362,0,1,1,3.629-3.024l2.755,3.307,12.047-12.3a2.362,2.362,0,1,1,3.375,3.3L234.31,258.672A2.365,2.365,0,0,1,232.622,259.381Z" transform="translate(-150.191 -159.889)" fill="#fff"/>
      <path id="Path_40" data-name="Path 40" d="M267.986,241.161a2.363,2.363,0,0,0-3.34.035L256,250.025v6.752L268.021,244.5A2.363,2.363,0,0,0,267.986,241.161Z" transform="translate(-170.131 -159.86)" fill="#d0d1d3"/>
    </g>
  </g>
</svg>
