<svg id="theme" xmlns="http://www.w3.org/2000/svg" width="19.724" height="19.724" viewBox="0 0 19.724 19.724">
  <path id="Path_126" data-name="Path 126" d="M13.806,18.708a3.444,3.444,0,0,1-1.016-2.451,4.03,4.03,0,0,0-2.277-2.564c-.333-.138-.787-.245-1.059.027l-.316.316,0,0a2.316,2.316,0,0,1-3.269,0l-5.7-5.7a.578.578,0,0,1,0-.817L7.524.17a.578.578,0,0,1,.817,0l5.7,5.7a2.316,2.316,0,0,1,0,3.27l-.319.318a.59.59,0,0,0-.169.446,3.9,3.9,0,0,0,2.707,2.89,3.471,3.471,0,0,1,3.467,3.467h0a3.466,3.466,0,0,1-5.918,2.451ZM7.933,1.4,1.4,7.933l2.452,2.452,6.538-6.538Zm9.958,16.5a2.31,2.31,0,0,0-1.633-3.945,3.921,3.921,0,0,1-2.526-1.368A4.348,4.348,0,0,1,12.394,9.9,1.745,1.745,0,0,1,12.9,8.638l.319-.319a1.161,1.161,0,0,0,0-1.634L11.2,4.664,4.664,11.2l2.02,2.02a1.161,1.161,0,0,0,1.634,0l.319-.319a2.017,2.017,0,0,1,2.318-.277c1.383.573,2.99,2.284,2.99,3.632a2.31,2.31,0,0,0,3.945,1.633Z" transform="translate(0 0)" fill="#9a5dba"/>
  <ellipse id="Ellipse_104" data-name="Ellipse 104" cx="0.592" cy="0.592" rx="0.592" ry="0.592" transform="translate(15.775 15.775)" fill="#9a5dba"/>
</svg>
